# xmcd
#
# Track frame offsets:
#	188
#	16613
#	31088
#	44888
#	60713
#	71888
#	86813
#	101888
#	112913
#	127763
#	139688
#	153788
#	171338
#	183413
#	200813
#
# Disc length: 2860 seconds
#
# Revision: 2
# Processed by: cddbd v1.5.2PL0 Copyright (c) Steve Scherf et al.
# Submitted via: EasyCDDAExtractor 12.0.0.1
#
DISCID=cf0b2a0f
DTITLE=ANTONIO AGUILAR - 15 EXITOS
DYEAR=1977
DGENRE=Latin
TTITLE0=ALBUR DE AMOR
TTITLE1=TAMPICO HERMOSO
TTITLE2=HACE UN AÑO
TTITLE3=PASO DEL NORTE
TTITLE4=ESTRELLITA MARINERA
TTITLE5=YA VIENE AMANECIENDO
TTITLE6=CANCION MIXTECA
TTITLE7=LA MULA CHULA
TTITLE8=QUE TE HA DADO ESA MUJER
TTITLE9=EL CHIVO
TTITLE10=NO VOLVERE
TTITLE11=LA RICA POBRE
TTITLE12=NOVIANDO EN LO OSCURITO
TTITLE13=EL DICHARACHERO
TTITLE14=ALTA Y DELGADITA
EXTD=
EXTT0=
EXTT1=
EXTT2=
EXTT3=
EXTT4=
EXTT5=
EXTT6=
EXTT7=
EXTT8=
EXTT9=
EXTT10=
EXTT11=
EXTT12=
EXTT13=
EXTT14=
PLAYORDER=
